<svg width="20" height="31" viewBox="0 0 20 31" fill="none" xmlns="http://www.w3.org/2000/svg">
<path d="M15.8594 2.95654C15.8594 4.53857 14.5703 5.76904 13.0469 5.76904C11.4648 5.76904 10.2344 4.53857 10.2344 2.95654C10.2344 1.43311 11.4648 0.144043 13.0469 0.144043C14.5703 0.144043 15.8594 1.43311 15.8594 2.95654ZM8.24219 11.8628C8.18359 11.8628 8.125 11.9214 8.06641 11.9214L7.42188 12.2144C6.54297 12.6245 5.83984 13.3276 5.48828 14.2651L5.37109 14.4409C5.01953 15.437 3.90625 15.9058 2.96875 15.4956C1.97266 15.144 1.50391 14.0308 1.91406 13.0933L1.97266 12.8589C2.73438 11.0425 4.14062 9.57764 5.89844 8.75732L6.54297 8.46436C7.77344 7.93701 9.0625 7.64404 10.4102 7.64404C13.0469 7.64404 15.3906 9.22607 16.3867 11.6284L17.2656 13.7964L18.5547 14.4409C19.4922 14.9097 19.8438 16.0229 19.375 16.9604C18.9062 17.8979 17.793 18.2495 16.8555 17.7808L15.332 17.019C14.6875 16.7261 14.2188 16.1987 13.9844 15.5542L13.3984 14.2065L12.2852 18.0737L15.1562 21.2378C15.5078 21.5894 15.7422 21.9995 15.8594 22.4683L17.207 27.8589C17.4414 28.855 16.7969 29.8511 15.8008 30.0854C14.8047 30.3784 13.8086 29.7339 13.5156 28.7378L12.2266 23.5815L8.125 19.0698C7.24609 18.1323 6.89453 16.7847 7.24609 15.5542L8.24219 11.8628ZM4.84375 23.4644L6.30859 19.8315C6.42578 20.0073 6.60156 20.1831 6.71875 20.3589L9.12109 22.937L8.24219 25.0464C8.125 25.3979 7.89062 25.7495 7.65625 25.9839L4.02344 29.6167C3.32031 30.3784 2.08984 30.3784 1.38672 29.6167C0.625 28.9136 0.625 27.6831 1.38672 26.98L4.84375 23.4644Z" fill="#003B49"/>
</svg>
