<svg width="31" height="27" viewBox="0 0 31 27" fill="none" xmlns="http://www.w3.org/2000/svg">
<path d="M9.76562 1.4292C10.293 1.95654 10.3516 2.83545 9.82422 3.42139L5.60547 8.10889C5.37109 8.34326 5.01953 8.51904 4.60938 8.51904C4.25781 8.57764 3.84766 8.40186 3.61328 8.10889L1.26953 5.76514C0.683594 5.23779 0.683594 4.35889 1.26953 3.83154C1.79688 3.24561 2.67578 3.24561 3.20312 3.83154L4.55078 5.12061L7.77344 1.48779C8.30078 0.960449 9.17969 0.901855 9.76562 1.4292ZM9.76562 10.8042C10.293 11.2729 10.3516 12.2104 9.82422 12.7964L5.60547 17.4839C5.37109 17.7183 5.01953 17.894 4.60938 17.894C4.25781 17.9526 3.84766 17.7769 3.61328 17.4839L1.26953 15.1401C0.683594 14.6128 0.683594 13.7339 1.26953 13.1479C1.79688 12.6206 2.67578 12.6206 3.20312 13.1479L4.55078 14.4956L7.77344 10.8628C8.30078 10.3354 9.17969 10.2769 9.76562 10.8042ZM13.9844 4.76904C13.9844 3.77295 14.8047 2.89404 15.8594 2.89404H28.9844C29.9805 2.89404 30.8594 3.77295 30.8594 4.76904C30.8594 5.82373 29.9805 6.64404 28.9844 6.64404H15.8594C14.8047 6.64404 13.9844 5.82373 13.9844 4.76904ZM13.9844 14.144C13.9844 13.1479 14.8047 12.269 15.8594 12.269H28.9844C29.9805 12.269 30.8594 13.1479 30.8594 14.144C30.8594 15.1987 29.9805 16.019 28.9844 16.019H15.8594C14.8047 16.019 13.9844 15.1987 13.9844 14.144ZM10.2344 23.519C10.2344 22.5229 11.0547 21.644 12.1094 21.644H28.9844C29.9805 21.644 30.8594 22.5229 30.8594 23.519C30.8594 24.5737 29.9805 25.394 28.9844 25.394H12.1094C11.0547 25.394 10.2344 24.5737 10.2344 23.519ZM0.859375 23.519C0.859375 21.9956 2.08984 20.7065 3.67188 20.7065C5.19531 20.7065 6.48438 21.9956 6.48438 23.519C6.48438 25.1011 5.19531 26.3315 3.67188 26.3315C2.08984 26.3315 0.859375 25.1011 0.859375 23.519Z" fill="#003B49"/>
</svg>
