<svg width="38" height="31" viewBox="0 0 38 31" fill="none" xmlns="http://www.w3.org/2000/svg">
<path d="M17.6172 9.28467C17.6758 9.63623 17.7344 10.0464 17.7344 10.4565C17.7344 10.9253 17.6758 11.3354 17.6172 11.687L18.9062 12.8589C19.3164 13.2104 19.4922 13.7964 19.2578 14.3237C19.1406 14.6167 18.9648 14.9683 18.8477 15.2612L18.6719 15.5542C18.4375 15.8472 18.2617 16.1401 18.0859 16.4331C17.7344 16.8433 17.1484 17.019 16.6211 16.8433L14.9805 16.2573C14.3359 16.7847 13.6328 17.1948 12.8711 17.4878L12.4609 19.187C12.4023 19.7729 11.9336 20.1831 11.4062 20.2417C10.9961 20.3003 10.5859 20.3003 10.2344 20.3003C9.82422 20.3003 9.41406 20.3003 9.00391 20.2417C8.47656 20.1831 8.00781 19.7729 7.94922 19.187L7.53906 17.4878C6.77734 17.1948 6.07422 16.7847 5.42969 16.2573L3.78906 16.8433C3.26172 17.019 2.67578 16.8433 2.32422 16.4331C2.14844 16.1401 1.91406 15.8472 1.73828 15.5542L1.5625 15.2612C1.44531 14.9683 1.26953 14.6167 1.15234 14.3237C0.917969 13.7964 1.09375 13.2104 1.50391 12.8589L2.79297 11.687C2.73438 11.3354 2.67578 10.9253 2.67578 10.4565C2.67578 10.0464 2.73438 9.63623 2.79297 9.28467L1.50391 8.11279C1.09375 7.70264 0.917969 7.1167 1.15234 6.64795C1.26953 6.29639 1.44531 6.00342 1.5625 5.71045L1.73828 5.41748C1.91406 5.12451 2.14844 4.83154 2.32422 4.53857C2.67578 4.12842 3.26172 3.95264 3.78906 4.12842L5.42969 4.71436C6.07422 4.18701 6.77734 3.77686 7.53906 3.48389L7.94922 1.78467C8.00781 1.19873 8.47656 0.788574 9.00391 0.72998C9.41406 0.671387 9.82422 0.612793 10.2344 0.612793C10.5859 0.612793 10.9961 0.671387 11.4062 0.72998C11.9336 0.788574 12.4023 1.19873 12.4609 1.78467L12.8711 3.48389C13.6328 3.77686 14.3359 4.18701 14.9805 4.71436L16.6211 4.12842C17.1484 3.95264 17.7344 4.12842 18.0859 4.53857C18.2617 4.83154 18.4375 5.12451 18.6719 5.41748L18.8477 5.71045C18.9648 6.00342 19.1406 6.29639 19.2578 6.64795C19.4922 7.1167 19.3164 7.70264 18.9062 8.11279L17.6172 9.28467ZM10.2344 7.64404C8.65234 7.64404 7.42188 8.93311 7.42188 10.4565C7.42188 12.0386 8.65234 13.269 10.2344 13.269C11.7578 13.269 13.0469 12.0386 13.0469 10.4565C13.0469 8.93311 11.7578 7.64404 10.2344 7.64404ZM29.2188 28.2104C28.8672 28.269 28.457 28.269 28.0469 28.269C27.5781 28.269 27.168 28.269 26.8164 28.2104L25.6445 29.4995C25.2344 29.9097 24.707 30.0854 24.1797 29.8511C23.8867 29.7339 23.5352 29.5581 23.2422 29.4409L22.9492 29.2065C22.6562 29.0308 22.3633 28.855 22.0703 28.6792C21.6602 28.3276 21.4844 27.7417 21.6602 27.2144L22.2461 25.5737C21.7188 24.9292 21.3086 24.2261 21.0156 23.4058L19.3164 23.0542C18.7305 22.937 18.3203 22.5269 18.2617 21.9995C18.2031 21.5894 18.2031 21.1792 18.2031 20.769C18.2031 20.4175 18.2031 20.0073 18.2617 19.5972C18.3203 19.0698 18.7305 18.6011 19.3164 18.4839L21.0156 18.1323C21.3086 17.3706 21.7188 16.6675 22.2461 16.0229L21.6602 14.3823C21.4844 13.855 21.6602 13.269 22.0703 12.9175C22.3633 12.7417 22.6562 12.5073 22.9492 12.3315L23.2422 12.1558C23.5352 12.0386 23.8281 11.8628 24.1797 11.7456C24.707 11.5112 25.2344 11.687 25.6445 12.0972L26.8164 13.3862C27.168 13.3276 27.5781 13.269 28.0469 13.269C28.457 13.269 28.8672 13.3276 29.2188 13.3862L30.3906 12.0972C30.8008 11.687 31.3281 11.5112 31.8555 11.7456C32.207 11.8628 32.5 12.0386 32.793 12.1558L33.0859 12.3315C33.3789 12.5073 33.6719 12.7417 33.9648 12.9175C34.375 13.269 34.5508 13.855 34.375 14.3823L33.7891 16.0229C34.3164 16.6675 34.7266 17.3706 35.0195 18.1323L36.7188 18.4839C37.3047 18.6011 37.7148 19.0698 37.7734 19.5972C37.832 20.0073 37.8906 20.4175 37.8906 20.769C37.8906 21.1792 37.832 21.5894 37.7734 21.9995C37.7148 22.5269 37.3047 22.937 36.7188 23.0542L35.0195 23.4058C34.7266 24.2261 34.3164 24.9292 33.7891 25.5737L34.375 27.2144C34.5508 27.7417 34.375 28.3276 33.9648 28.6792C33.6719 28.855 33.3789 29.0308 33.0859 29.2065L32.793 29.4409C32.5 29.5581 32.1484 29.7339 31.8555 29.8511C31.3281 30.0854 30.8008 29.9097 30.3906 29.4995L29.2188 28.2104ZM30.8594 20.769C30.8594 19.2456 29.5703 17.9565 28.0469 17.9565C26.4648 17.9565 25.2344 19.2456 25.2344 20.769C25.2344 22.3511 26.4648 23.5815 28.0469 23.5815C29.5703 23.5815 30.8594 22.3511 30.8594 20.769Z" fill="#003B49"/>
</svg>
