<svg width="39" height="31" viewBox="0 0 39 31" fill="none" xmlns="http://www.w3.org/2000/svg">
<path d="M20.5469 0.144043C22.0703 0.144043 23.3594 1.43311 23.3594 2.95654V13.7964C21.0156 15.6714 19.6094 18.5425 19.6094 21.7065C19.6094 24.6362 20.7812 27.2729 22.7148 29.1479C22.1875 29.7925 21.4258 30.144 20.5469 30.144H14.9219V25.4565C14.9219 23.9331 13.6328 22.644 12.1094 22.644C10.5273 22.644 9.29688 23.9331 9.29688 25.4565V30.144H3.67188C2.08984 30.144 0.859375 28.9136 0.859375 27.3315V2.95654C0.859375 1.43311 2.08984 0.144043 3.67188 0.144043H20.5469ZM4.60938 16.0815C4.60938 16.6089 5.01953 17.019 5.54688 17.019H7.42188C7.89062 17.019 8.35938 16.6089 8.35938 16.0815V14.2065C8.35938 13.7378 7.89062 13.269 7.42188 13.269H5.54688C5.01953 13.269 4.60938 13.7378 4.60938 14.2065V16.0815ZM11.1719 13.269C10.6445 13.269 10.2344 13.7378 10.2344 14.2065V16.0815C10.2344 16.6089 10.6445 17.019 11.1719 17.019H13.0469C13.5156 17.019 13.9844 16.6089 13.9844 16.0815V14.2065C13.9844 13.7378 13.5156 13.269 13.0469 13.269H11.1719ZM15.8594 16.0815C15.8594 16.6089 16.2695 17.019 16.7969 17.019H18.6719C19.1406 17.019 19.6094 16.6089 19.6094 16.0815V14.2065C19.6094 13.7378 19.1406 13.269 18.6719 13.269H16.7969C16.2695 13.269 15.8594 13.7378 15.8594 14.2065V16.0815ZM5.54688 5.76904C5.01953 5.76904 4.60938 6.23779 4.60938 6.70654V8.58154C4.60938 9.10889 5.01953 9.51904 5.54688 9.51904H7.42188C7.89062 9.51904 8.35938 9.10889 8.35938 8.58154V6.70654C8.35938 6.23779 7.89062 5.76904 7.42188 5.76904H5.54688ZM10.2344 8.58154C10.2344 9.10889 10.6445 9.51904 11.1719 9.51904H13.0469C13.5156 9.51904 13.9844 9.10889 13.9844 8.58154V6.70654C13.9844 6.23779 13.5156 5.76904 13.0469 5.76904H11.1719C10.6445 5.76904 10.2344 6.23779 10.2344 6.70654V8.58154ZM16.7969 5.76904C16.2695 5.76904 15.8594 6.23779 15.8594 6.70654V8.58154C15.8594 9.10889 16.2695 9.51904 16.7969 9.51904H18.6719C19.1406 9.51904 19.6094 9.10889 19.6094 8.58154V6.70654C19.6094 6.23779 19.1406 5.76904 18.6719 5.76904H16.7969ZM38.3594 21.7065C38.3594 26.394 34.5508 30.144 29.9219 30.144C25.2344 30.144 21.4844 26.394 21.4844 21.7065C21.4844 17.0776 25.2344 13.269 29.9219 13.269C34.5508 13.269 38.3594 17.0776 38.3594 21.7065ZM32.5 19.187L28.9844 22.7612L27.2852 21.062C26.9336 20.7104 26.2891 20.7104 25.9375 21.062C25.5859 21.4136 25.5859 22.0581 25.9375 22.4097L28.2812 24.7534C28.6328 25.105 29.2773 25.105 29.6289 24.7534L33.8477 20.5347C34.1992 20.1831 34.1992 19.5386 33.8477 19.187C33.4961 18.8354 32.8516 18.8354 32.5 19.187Z" fill="#003B49"/>
</svg>
