<svg width="257" height="257" viewBox="0 0 257 257" fill="none" xmlns="http://www.w3.org/2000/svg">
<g clip-path="url(#clip0_115_4)">
<rect width="257" height="257" rx="128.5" fill="#003B49"/>
<path d="M45.5999 182.316H41.1201L47.5209 166.191H51.0801L57.2852 182.316H52.7619L51.9935 179.981H46.3393L45.5999 182.316ZM49.1157 171.099L47.3687 176.722H50.9279L49.1157 171.099Z" fill="#D9D9D9"/>
<path d="M64.1502 182.315H60.678L56.3286 170.224H60.0836L62.4177 177.762L64.7519 170.224H68.5068L64.1357 182.315H64.1502Z" fill="#D9D9D9"/>
<path d="M70.1953 166.191H73.8198V168.938H70.1953V166.191ZM70.1953 170.224H73.8198V182.316H70.1953V170.224Z" fill="#D9D9D9"/>
<path d="M76.4443 166.191H80.0688V182.316H76.4443V166.191Z" fill="#D9D9D9"/>
<path d="M95.4287 182.315H91.8043V181.007C91.1519 182.185 89.6441 182.727 88.2233 182.727C84.3814 182.727 82.127 179.72 82.127 176.258C82.127 172.291 84.9903 169.812 88.2233 169.812C90.2095 169.812 91.3258 170.773 91.8043 171.51V170.223H95.4287V182.315ZM85.7514 176.323C85.7514 177.437 86.585 179.352 88.767 179.352C90.0573 179.352 90.8402 178.745 91.3041 178C91.6085 177.523 91.7608 176.996 91.8043 176.454C91.8477 175.912 91.739 175.362 91.4998 174.864C91.1084 174.032 90.2747 173.187 88.7452 173.187C86.672 173.187 85.7514 174.929 85.7514 176.302V176.323Z" fill="#D9D9D9"/>
<path d="M104.954 182.316V166.191H107.491L113.478 179.721L119.444 166.191H121.981V182.316H120.278L120.321 167.984L114.051 182.316H112.891L106.599 167.984L106.643 182.316H104.961H104.954Z" fill="#D9D9D9"/>
<path d="M135.98 182.316H134.45V180.228C133.798 181.753 132.203 182.67 130.101 182.649C126.433 182.584 125.143 180.098 125.143 177.243V170.601H126.737V176.939C126.737 179.469 127.875 181.167 130.514 181.145C132.964 181.124 134.356 179.664 134.356 177.221V170.601H135.972V182.324L135.98 182.316Z" fill="#D9D9D9"/>
<path d="M139.118 166.191H140.735V182.316H139.118V166.191Z" fill="#D9D9D9"/>
<path d="M144.78 171.879H142.46V170.593H144.78V166.191H146.374V170.593H148.955V171.879H146.374V182.316H144.78V171.879Z" fill="#D9D9D9"/>
<path d="M150.723 166.191H152.34V168.432H150.723V166.191ZM150.723 170.593H152.34V182.316H150.723V170.593Z" fill="#D9D9D9"/>
<path d="M156.552 177.827C156.813 180.509 158.785 181.072 159.785 181.072C161.467 181.072 163.018 179.786 163.018 178.001C163.018 175.739 161.075 175.233 159.198 174.626C157.886 174.235 155.066 173.404 155.066 170.354C155.023 167.499 157.407 165.909 159.872 165.909C161.88 165.909 164.2 167.022 164.461 170.072H162.67C162.474 169.024 161.945 167.434 159.807 167.434C158.19 167.434 156.857 168.526 156.857 170.202C156.835 172.161 158.43 172.645 160.88 173.469C162.409 174.055 164.816 174.907 164.816 177.871C164.816 180.509 162.83 182.597 159.814 182.597C157.103 182.597 154.856 180.899 154.747 177.827H156.559H156.552Z" fill="#D9D9D9"/>
<path d="M167.193 170.593H168.722V173.036C169.686 171.337 171.39 170.268 173.637 170.268C177.595 170.268 179.668 173.469 179.668 176.498C179.668 179.765 177.291 182.641 173.637 182.641C171.035 182.641 169.353 181.138 168.809 179.916V186.753H167.193V170.586V170.593ZM178.052 176.433C178.052 174.235 176.5 171.749 173.333 171.749C172.021 171.749 170.861 172.27 170.013 173.122C169.208 173.975 168.701 175.146 168.701 176.476C168.701 177.806 169.201 178.962 170.056 179.808C170.89 180.639 172.064 181.138 173.376 181.138C176.022 181.138 178.052 179.136 178.052 176.454V176.433Z" fill="#D9D9D9"/>
<path d="M181.416 176.433C181.416 173.166 183.866 170.268 187.642 170.268C191.419 170.268 193.891 173.166 193.891 176.454C193.891 179.743 191.441 182.619 187.642 182.619C183.844 182.619 181.416 179.743 181.416 176.454V176.433ZM183.01 176.476C183.01 179.136 185.04 181.138 187.642 181.138C190.245 181.138 192.274 179.136 192.274 176.454C192.274 173.773 190.266 171.771 187.642 171.771C185.018 171.771 183.01 173.773 183.01 176.454V176.476Z" fill="#D9D9D9"/>
<path d="M196.312 170.593H197.842V172.508C198.697 170.766 200.226 170.311 201.596 170.268V171.858H201.444C199.175 171.858 197.907 173.274 197.907 175.934V182.316H196.312V170.593Z" fill="#D9D9D9"/>
<path d="M204.859 171.879H202.539V170.593H204.859V166.191H206.453V170.593H209.034V171.879H206.453V182.316H204.859V171.879Z" fill="#D9D9D9"/>
<path d="M41.5186 156.427H104.323L93.2468 135.214H76.5816L87.8754 114.066L109.622 156.073H134.326L87.5274 68.5332L41.5186 156.427Z" fill="#93B7BB"/>
<path d="M178.11 155.704L131.043 68.5332L112.305 104.685L124.287 128.138L131.485 113.785L153.529 155.711C153.529 155.711 176.987 155.812 178.118 155.704H178.11Z" fill="#ACC37E"/>
<path d="M201.967 93.2012C202.945 93.2012 204.323 93.5047 206.113 94.1118V70.4635C202.822 69.3288 199.466 68.7578 196.051 68.7578C188.288 68.7578 181.612 71.5838 176.023 77.2357C170.434 82.8875 167.636 89.6308 167.636 97.4509C167.636 103.934 169.484 110.424 173.181 116.907C175.501 120.998 176.653 123.658 176.653 124.872C176.653 126.737 175.929 128.283 174.486 129.519C173.573 130.3 172.514 130.835 171.318 131.124L184.279 154.432C188.527 153.074 192.333 150.768 195.711 147.487C201.459 141.893 204.337 135.063 204.337 126.997C204.337 121.482 202.634 115.773 199.212 109.853L197.32 106.572C195.856 104.021 195.124 101.91 195.124 100.248C195.124 98.3038 195.798 96.6415 197.139 95.261C198.48 93.8806 200.082 93.1939 201.952 93.1939L201.967 93.2012Z" fill="#E1D355"/>
</g>
<defs>
<clipPath id="clip0_115_4">
<rect width="257" height="257" fill="white"/>
</clipPath>
</defs>
</svg>
